<svg xmlns="http://www.w3.org/2000/svg" viewBox="0 0 1353.7 1034.17"><defs><style>.cls-1{fill:#e0dede;}</style></defs><g id="Layer_2" data-name="Layer 2"><g id="Layer_1-2" data-name="Layer 1"><circle class="cls-1" cx="1154.55" cy="824.9" r="42.89"/><circle class="cls-1" cx="1226.74" cy="752.14" r="16.85"/><circle class="cls-1" cx="1311.19" cy="716.52" r="42.51"/><circle class="cls-1" cx="1348.15" cy="808.82" r="5.55"/><circle class="cls-1" cx="1131.83" cy="991.27" r="42.89"/><circle class="cls-1" cx="1174.72" cy="914.52" r="16.85"/><circle class="cls-1" cx="1287.93" cy="928.98" r="31.31"/><circle class="cls-1" cx="1209.89" cy="1001.84" r="5.55"/><circle class="cls-1" cx="1273.47" cy="831.22" r="16.85"/><circle class="cls-1" cx="1038.64" cy="912.13" r="16.85"/><circle class="cls-1" cx="1050.89" cy="996.29" r="16.85"/><circle class="cls-1" cx="1088.68" cy="893.33" r="5.55"/><circle class="cls-1" cx="171.83" cy="180.96" r="42.89"/><circle class="cls-1" cx="262.53" cy="148.21" r="16.85"/><circle class="cls-1" cx="266.36" cy="42.51" r="42.51"/><circle class="cls-1" cx="296.49" cy="104.25" r="5.55"/><circle class="cls-1" cx="42.89" cy="191.11" r="42.89"/><circle class="cls-1" cx="20.17" cy="280.53" r="16.85"/><circle class="cls-1" cx="154.98" cy="36.86" r="31.31"/><circle class="cls-1" cx="112.34" cy="72.96" r="5.55"/><circle class="cls-1" cx="112.34" cy="138.06" r="16.85"/><circle class="cls-1" cx="195.7" cy="92.95" r="16.85"/><circle class="cls-1" cx="61.79" cy="92.95" r="16.85"/><circle class="cls-1" cx="85.79" cy="253.21" r="5.55"/></g></g></svg>