<svg xmlns="http://www.w3.org/2000/svg" xmlns:xlink="http://www.w3.org/1999/xlink" viewBox="0 0 1920 1080"><defs><style>.cls-1{fill:#fff;}</style></defs><g id="Layer_2" data-name="Layer 2"><g id="Layer_1-2" data-name="Layer 1"><rect class="cls-1" width="1920" height="1080"/><image width="512" height="512" transform="translate(71 352.4) rotate(-9.4) scale(0.22)" xlink:href="C:%5CUsers%5CYaroslav%5CDownloads%5Cnote.png"/><image width="512" height="512" transform="matrix(0.16, 0.05, -0.05, 0.16, 252.37, 180)" xlink:href="C:%5CUsers%5CYaroslav%5CDownloads%5Cto-do-list.png"/><image width="512" height="512" transform="translate(1540 182) scale(0.2)" xlink:href="C:%5CUsers%5CYaroslav%5CDownloads%5Claughing.png"/><image width="512" height="512" transform="translate(71 650) scale(0.17)" xlink:href="C:%5CUsers%5CYaroslav%5CDownloads%5Cshocked.png"/><image width="512" height="512" transform="translate(287 695) scale(0.24)" xlink:href="C:%5CUsers%5CYaroslav%5CDownloads%5Cmanager.png"/><image width="512" height="512" transform="translate(76 891) scale(0.21)" xlink:href="C:%5CUsers%5CYaroslav%5CDownloads%5Chourglass.png"/><image width="512" height="511" transform="translate(1579 781) scale(0.21)" xlink:href="C:%5CUsers%5CYaroslav%5CDownloads%5Ctimetable.png"/><image width="512" height="512" transform="translate(1735 673) scale(0.22)" xlink:href="C:%5CUsers%5CYaroslav%5CDownloads%5Cbusiness.png"/><image width="512" height="512" transform="translate(1726 924) scale(0.22)" xlink:href="C:%5CUsers%5CYaroslav%5CDownloads%5Cgrowth.png"/><image width="512" height="512" transform="translate(253 480) scale(0.24)" xlink:href="C:%5CUsers%5CYaroslav%5CDownloads%5Cbusiness%20(1).png"/><image width="512" height="512" transform="translate(1735 355) scale(0.27)" xlink:href="C:%5CUsers%5CYaroslav%5CDownloads%5Chandshake.png"/><image width="512" height="512" transform="translate(67 56) scale(0.19)" xlink:href="C:%5CUsers%5CYaroslav%5CDownloads%5Ccool.png"/><image width="512" height="512" transform="translate(1542 480) scale(0.28)" xlink:href="C:%5CUsers%5CYaroslav%5CDownloads%5Crating.png"/><image width="512" height="512" transform="translate(1762 56) scale(0.21)" xlink:href="C:%5CUsers%5CYaroslav%5CDownloads%5Clove.png"/></g></g></svg>