<svg xmlns="http://www.w3.org/2000/svg" viewBox="0 0 1479.83 1629.96"><defs><style>.cls-1{fill:none;}.cls-2{fill:#e0dede;}</style></defs><g id="Layer_2" data-name="Layer 2"><g id="Layer_1-2" data-name="Layer 1"><rect class="cls-1" width="1479.83" height="1629.96" rx="173.11"/><circle class="cls-2" cx="1229.04" cy="1365.38" r="42.89"/><circle class="cls-2" cx="1301.23" cy="1292.62" r="16.85"/><circle class="cls-2" cx="1385.68" cy="1257" r="42.51"/><circle class="cls-2" cx="1418.81" cy="1444.35" r="5.55"/><circle class="cls-2" cx="1206.32" cy="1531.75" r="42.89"/><circle class="cls-2" cx="1249.21" cy="1455" r="16.85"/><circle class="cls-2" cx="1362.41" cy="1469.46" r="31.31"/><circle class="cls-2" cx="1284.38" cy="1542.32" r="5.55"/><circle class="cls-2" cx="1347.96" cy="1371.7" r="16.85"/><circle class="cls-2" cx="1113.13" cy="1452.6" r="16.85"/><circle class="cls-2" cx="1125.38" cy="1536.76" r="16.85"/><circle class="cls-2" cx="1163.17" cy="1433.81" r="5.55"/><circle class="cls-2" cx="254.07" cy="250.48" r="42.89"/><circle class="cls-2" cx="344.78" cy="217.74" r="16.85"/><circle class="cls-2" cx="348.61" cy="112.04" r="42.51"/><circle class="cls-2" cx="378.73" cy="173.78" r="5.55"/><circle class="cls-2" cx="125.14" cy="260.63" r="42.89"/><circle class="cls-2" cx="102.41" cy="350.06" r="16.85"/><circle class="cls-2" cx="237.22" cy="106.39" r="31.31"/><circle class="cls-2" cx="194.59" cy="142.48" r="5.55"/><circle class="cls-2" cx="194.59" cy="207.59" r="16.85"/><circle class="cls-2" cx="277.95" cy="162.48" r="16.85"/><circle class="cls-2" cx="144.03" cy="162.48" r="16.85"/><circle class="cls-2" cx="168.03" cy="322.74" r="5.55"/></g></g></svg>